<?xml version="1.0" standalone="no"?>
<!DOCTYPE svg PUBLIC "-//W3C//DTD SVG 20010904//EN"
 "http://www.w3.org/TR/2001/REC-SVG-20010904/DTD/svg10.dtd">
<svg version="1.0" xmlns="http://www.w3.org/2000/svg"
 width="400.000000pt" height="400.000000pt" viewBox="0 0 400.000000 400.000000"
 preserveAspectRatio="xMidYMid meet">
<metadata>
Created by potrace 1.11, written by Peter Selinger 2001-2013
</metadata>
<g transform="translate(0.000000,400.000000) scale(0.100000,-0.100000)"
fill="#000000" stroke="none">
<path d="M1829 3996 c-2 -2 -30 -6 -62 -10 -31 -3 -67 -8 -80 -11 -12 -2 -35
-7 -52 -9 -170 -27 -395 -105 -565 -195 -71 -37 -219 -131 -261 -165 -15 -11
-39 -30 -55 -41 -79 -57 -233 -211 -319 -320 -280 -357 -424 -760 -430 -1205
-4 -225 9 -345 55 -525 26 -101 85 -277 108 -321 5 -11 20 -39 32 -64 95 -192
189 -333 315 -469 325 -353 712 -560 1200 -642 125 -21 492 -18 596 5 13 3 38
8 54 10 289 46 636 204 884 404 404 326 649 761 736 1307 10 62 14 414 5 470
-4 28 -11 73 -15 100 -19 145 -84 359 -156 515 -193 421 -515 752 -935 964
-61 31 -118 56 -126 56 -8 0 -18 4 -23 9 -27 25 -289 96 -445 121 -67 11 -452
24 -461 16z"/>
</g>
</svg>
